<svg width="16" height="16" viewBox="0 0 16 16" fill="none" xmlns="http://www.w3.org/2000/svg">
<path fill-rule="evenodd" clip-rule="evenodd" d="M5.64298 2.30968C6.2681 1.68456 7.11595 1.33337 8 1.33337C8.88406 1.33337 9.7319 1.68456 10.357 2.30968C10.9821 2.93481 11.3333 3.78265 11.3333 4.66671V5.33337H12.6667C13.0134 5.33337 13.3022 5.59915 13.331 5.94468L13.9977 13.9447C14.0132 14.1305 13.9502 14.3143 13.8239 14.4514C13.6977 14.5886 13.5198 14.6667 13.3333 14.6667H2.66667C2.48023 14.6667 2.30232 14.5886 2.17608 14.4514C2.04984 14.3143 1.98682 14.1305 2.0023 13.9447L2.66897 5.94468C2.69777 5.59915 2.98661 5.33337 3.33334 5.33337H4.66667V4.66671C4.66667 3.78265 5.01786 2.93481 5.64298 2.30968ZM4.66667 6.66671V7.33337C4.66667 7.70156 4.96515 8.00004 5.33334 8.00004C5.70153 8.00004 6 7.70156 6 7.33337V6.66671H10V7.33337C10 7.70156 10.2985 8.00004 10.6667 8.00004C11.0349 8.00004 11.3333 7.70156 11.3333 7.33337V6.66671H12.0532L12.6088 13.3334H3.3912L3.94676 6.66671H4.66667ZM10 5.33337H6V4.66671C6 4.13627 6.21072 3.62757 6.58579 3.25249C6.96086 2.87742 7.46957 2.66671 8 2.66671C8.53044 2.66671 9.03914 2.87742 9.41422 3.25249C9.78929 3.62757 10 4.13627 10 4.66671V5.33337Z" fill="#0C122A" style="fill:#0C122A;fill:color(display-p3 0.0471 0.0706 0.1647);fill-opacity:1;"/>
</svg>
