<svg width="910" height="162" viewBox="0 0 910 162" fill="none" xmlns="http://www.w3.org/2000/svg">
<path d="M302.382 39.417C306.405 39.6288 310.446 39.833 314.505 40.0283C312.232 48.0946 311.097 56.663 311.097 65.7334C311.097 89.1438 318.665 109.21 333.803 125.932C348.94 142.653 369.006 151.015 394.001 151.015C418.995 151.015 439.062 142.653 454.199 125.932C469.337 109.21 476.818 89.1437 476.642 65.7334C476.701 57.8682 475.894 50.3807 474.225 43.2705C478.318 43.2443 482.4 43.2105 486.471 43.168C488.014 50.3547 488.786 57.8764 488.786 65.7334C488.786 92.1361 480.073 114.755 462.647 133.589C445.398 152.422 422.516 161.839 394.001 161.839C365.486 161.839 342.516 152.423 325.09 133.589C307.84 114.755 299.215 92.1361 299.215 65.7334C299.215 56.4982 300.271 47.7262 302.382 39.417ZM802.657 20.7432C804.027 38.9213 816.04 50.5735 838.696 55.7002L870.38 63.6211C883.053 66.6134 892.734 72.1581 899.423 80.2549C906.111 88.3517 909.456 98.7369 909.456 111.41C909.456 126.9 904.175 139.221 893.614 148.374C883.229 157.351 868.884 161.839 850.578 161.839C830.512 161.839 814.582 156.47 802.789 145.733L811.237 138.077C821.094 146.878 834.12 151.278 850.313 151.278C865.275 151.278 876.892 147.758 885.165 140.717C893.614 133.676 897.839 123.907 897.839 111.41C897.839 91.3441 886.397 78.5825 863.515 73.126L831.832 64.9414C806.361 59.3543 792.781 45.1758 791.09 22.4062C794.985 21.8609 798.841 21.3068 802.657 20.7432ZM0 0C3.78749 0.969927 7.6605 1.92766 11.6172 2.87207V147.317H50.958C68.3835 147.317 83.6086 143.357 96.6338 135.437C109.835 127.34 119.516 117.218 125.677 105.073C132.013 92.928 135.183 79.8148 135.183 65.7334C135.183 51.476 132.013 38.275 125.677 26.1299C125.174 25.1379 124.645 24.161 124.095 23.1973C128.652 23.8187 133.26 24.4273 137.918 25.0234C143.839 37.6547 146.799 51.2248 146.799 65.7334C146.799 81.751 143.191 96.7128 135.975 110.618C128.934 124.347 118.021 135.701 103.235 144.678C88.4499 153.655 71.2878 158.143 51.75 158.143H0V0ZM167.286 28.5391C171.129 28.9682 175.002 29.3885 178.903 29.8008V86.8555H229.332C243.237 86.8555 254.767 82.015 263.92 72.334C272.688 63.0697 277.334 51.6287 277.861 38.0107C281.708 38.2496 285.574 38.4815 289.457 38.7051C288.895 51.9299 284.962 63.5797 277.649 73.6543C269.905 84.3914 259.607 91.5197 246.758 95.04L287.418 158.143H273.689L234.613 97.1523C233.557 97.3284 231.973 97.417 229.86 97.417H178.903V158.143H167.286V28.5391ZM521.72 158.143H510.366V42.8232C514.162 42.7533 517.946 42.6758 521.72 42.5918V158.143ZM637.628 158.143H624.954L552.597 41.7412C556.845 41.6014 561.077 41.4525 565.292 41.2949L626.274 139.397V38.3359C630.077 38.1078 633.861 37.8717 637.628 37.6289V158.143ZM683.597 60.9814H773.63V71.542H683.597V147.317H773.63V158.143H671.979V35.1758C675.874 34.8697 679.747 34.5554 683.597 34.2334V60.9814ZM901.633 1.95508C904.031 8.36774 905.231 15.6333 905.231 23.7529H893.614C893.614 16.5661 892.478 10.2003 890.211 4.65332C894.094 3.7663 897.902 2.86589 901.633 1.95508Z" fill="#0C122A" fill-opacity="0.1" style="fill:#0C122A;fill:color(display-p3 0.0471 0.0706 0.1647);fill-opacity:0.1;"/>
</svg>
